<svg width="864" height="95" viewBox="0 0 864 95" fill="none" xmlns="http://www.w3.org/2000/svg">
<g clip-path="url(#clip0)">
<path d="M6.6419 72.6181H15.4978C19.1508 72.6181 22.1397 75.607 22.1397 79.26V88.1159C22.1397 91.7689 19.1508 94.7578 15.4978 94.7578H6.6419C2.98885 94.7578 0 91.7689 0 88.1159V79.26C0 75.607 2.98885 72.6181 6.6419 72.6181Z" fill="#1A90FF"/>
<path d="M847.783 26.0695H863.834L842.414 94.5363H821.492L807.433 39.63L793.651 94.5363H772.674L750.977 26.0695H767.139L783.744 82.8023L798.854 26.0695H816.178L831.012 82.8023L847.783 26.0695Z" fill="#1A90FF"/>
<path d="M684.448 26.0695H729.391C736.31 26.0695 739.797 29.7778 739.797 37.1946V63.5962H691.034V81.806C691.034 83.6879 691.255 84.9056 691.754 85.4037C692.252 85.9019 693.359 86.1786 695.13 86.1786H718.93C720.591 86.1786 721.698 85.9019 722.196 85.4037C722.749 84.9056 722.97 83.6879 722.97 81.806V74.0572H739.52V83.3558C739.52 90.7726 736.033 94.481 729.114 94.481H684.392C677.474 94.481 673.987 90.7726 673.987 83.3558V37.1946C674.097 29.7778 677.529 26.0695 684.448 26.0695ZM691.034 55.2938H723.247V38.7998C723.247 37.0286 722.971 35.8109 722.472 35.2574C721.974 34.7039 720.867 34.4272 719.207 34.4272H695.13C693.359 34.4272 692.252 34.7039 691.754 35.2574C691.255 35.8109 691.034 36.9732 691.034 38.7998V55.2938Z" fill="#1A90FF"/>
<path d="M652.123 25.9034H663.581V35.0914H649.135C643.101 35.0914 640.057 38.6337 640.057 45.6631V94.481H623.12V26.0695H640.057V34.5379C641.718 28.7816 645.758 25.9588 652.123 25.9034Z" fill="#1A90FF"/>
<path d="M605.187 37.0839H587.42V19.4275C587.42 17.5457 587.199 16.328 586.701 15.8299C586.203 15.3317 585.096 15.055 583.325 15.055H557.532C555.761 15.055 554.654 15.3317 554.211 15.8299C553.768 16.328 553.491 17.5457 553.491 19.4275V81.806C553.491 83.6879 553.713 84.9056 554.211 85.4037C554.709 85.9019 555.816 86.1786 557.532 86.1786H583.325C585.096 86.1786 586.203 85.9019 586.701 85.4037C587.199 84.9056 587.42 83.6879 587.42 81.806V64.205H605.187V83.4111C605.187 90.8279 601.7 94.5363 594.782 94.5363H546.13C539.211 94.5363 535.724 90.8279 535.724 83.4111V17.8778C535.724 10.461 539.211 6.75259 546.13 6.75259H594.782C601.7 6.75259 605.187 10.461 605.187 17.8778V37.0839Z" fill="#1A90FF"/>
<path d="M496.758 81.8614V68.8543C496.758 67.0831 496.482 65.8655 495.928 65.312C495.375 64.7585 494.212 64.4817 492.497 64.4817H461.556C454.306 64.4817 450.708 60.7733 450.708 53.3012V37.1393C450.708 29.7225 454.306 26.0141 461.556 25.9587H502.958C510.208 25.9587 513.806 29.6671 513.806 37.1393V45.7737H496.482V38.5783C496.482 36.6965 496.205 35.4788 495.651 34.9806C495.098 34.4825 493.936 34.2058 492.22 34.2058H472.682C470.91 34.2058 469.803 34.4825 469.25 34.9806C468.696 35.4788 468.42 36.6965 468.42 38.5783V51.8621C468.42 53.744 468.696 54.9617 469.25 55.4598C469.803 55.958 470.966 56.2347 472.682 56.2347H503.511C510.762 56.2347 514.359 59.9431 514.359 67.3599V83.3004C514.359 90.7172 510.762 94.4256 503.511 94.4256H461.999C454.749 94.4256 451.151 90.7172 451.151 83.3004V74.666H468.475V81.8614C468.475 83.6325 468.752 84.8502 469.305 85.4037C469.859 85.9572 471.021 86.2339 472.737 86.2339H492.552C494.268 86.2339 495.43 85.9572 495.984 85.4037C496.537 84.8502 496.758 83.6325 496.758 81.8614Z" fill="white"/>
<path d="M428.402 25.848H440.358V35.036H425.247C418.938 35.036 415.783 38.5783 415.783 45.6077V94.4256H398.071V25.9587H415.783V34.4271C417.498 28.7262 421.705 25.848 428.402 25.848Z" fill="white"/>
<path d="M320.471 25.9587H367.518C374.769 25.9587 378.367 29.6671 378.367 37.1393V63.5408H327.335V81.7507C327.335 83.6325 327.611 84.8502 328.11 85.3484C328.608 85.8465 329.77 86.1232 331.597 86.1232H356.504C358.275 86.1232 359.382 85.8465 359.935 85.3484C360.489 84.8502 360.766 83.6325 360.766 81.7507V74.0018H378.09V83.3004C378.09 90.7172 374.492 94.4256 367.241 94.4256H320.471C313.221 94.4256 309.623 90.7172 309.623 83.3004V37.1393C309.623 29.6671 313.221 25.9587 320.471 25.9587ZM327.335 55.1831H361.042V38.689C361.042 36.9179 360.766 35.7002 360.212 35.1467C359.659 34.5932 358.496 34.3165 356.78 34.3165H331.597C329.77 34.3165 328.608 34.5932 328.11 35.1467C327.611 35.7002 327.335 36.8625 327.335 38.689V55.1831Z" fill="white"/>
<path d="M270.934 0H288.701V94.4256H270.934V90.053C269.827 92.9865 267.281 94.4256 263.24 94.4256H232.189C224.939 94.4256 221.341 90.7172 221.341 83.3004V37.1393C221.341 29.7225 224.939 26.0141 232.189 25.9587H263.24C267.281 25.9587 269.827 27.3978 270.934 30.3313V0ZM243.315 86.1233H266.118C267.89 86.1233 269.107 85.7912 269.827 85.0716C270.546 84.3521 270.934 83.1898 270.934 81.4739V38.9658C270.934 37.25 270.546 36.0876 269.827 35.3681C269.107 34.6486 267.834 34.3165 266.118 34.3165H243.315C241.488 34.3165 240.326 34.5932 239.828 35.1467C239.33 35.7002 239.053 36.8625 239.053 38.689V81.7507C239.053 83.6325 239.33 84.8502 239.828 85.3484C240.326 85.8465 241.488 86.1233 243.315 86.1233Z" fill="white"/>
<path d="M144.572 25.9587H190.623C197.873 25.9587 201.471 29.6671 201.471 37.1393V83.3004C201.471 90.7172 197.873 94.4256 190.623 94.4256H144.572C137.321 94.4256 133.724 90.7172 133.724 83.3004V37.1393C133.724 29.6671 137.321 25.9587 144.572 25.9587ZM183.925 81.6953V38.689C183.925 36.9179 183.649 35.7002 183.15 35.1467C182.652 34.5932 181.49 34.3165 179.663 34.3165H155.587C153.871 34.3165 152.708 34.5932 152.155 35.1467C151.601 35.7002 151.325 36.8625 151.325 38.689V81.7507C151.325 83.6325 151.601 84.8502 152.155 85.3484C152.708 85.8465 153.871 86.1232 155.587 86.1232H179.663C181.49 86.1232 182.652 85.8465 183.15 85.3484C183.649 84.7949 183.925 83.6325 183.925 81.6953Z" fill="white"/>
<path d="M116.123 36.9732H97.5806V19.3169C97.5806 17.435 97.3039 16.2173 96.8057 15.7192C96.3076 15.221 95.1453 14.9443 93.3187 14.9443H66.3637C64.5372 14.9443 63.3749 15.221 62.8767 15.7192C62.3786 16.2173 62.1018 17.435 62.1018 19.3169V81.6953C62.1018 83.5772 62.3232 84.7949 62.8767 85.293C63.4302 85.7912 64.5372 86.0679 66.3637 86.0679H93.3187C95.1453 86.0679 96.3076 85.7912 96.8057 85.293C97.3039 84.7949 97.5806 83.5772 97.5806 81.6953V64.039H116.123V83.2451C116.123 90.6619 112.525 94.3703 105.274 94.3703H54.3529C47.1022 94.3703 43.5045 90.6619 43.5045 83.2451V17.7671C43.5045 10.3503 47.1022 6.64191 54.3529 6.64191H105.219C112.47 6.64191 116.067 10.3503 116.067 17.7671V36.9732H116.123Z" fill="white"/>
</g>
<defs>
<clipPath id="clip0">
<rect width="864" height="94.647" fill="white"/>
</clipPath>
</defs>
</svg>
