<svg width="279" height="49" viewBox="0 0 279 49" fill="none" xmlns="http://www.w3.org/2000/svg">
<path d="M40.792 22.057H34.177V15.932C34.177 15.2787 34.079 14.8703 33.883 14.707C33.7197 14.511 33.3113 14.413 32.658 14.413H23.054C22.4007 14.413 21.976 14.511 21.78 14.707C21.6167 14.8703 21.535 15.2787 21.535 15.932V37.59C21.535 38.2433 21.6167 38.668 21.78 38.864C21.976 39.0273 22.4007 39.109 23.054 39.109H32.658C33.3113 39.109 33.7197 39.0273 33.883 38.864C34.079 38.668 34.177 38.2433 34.177 37.59V31.465H40.792V38.129C40.792 40.7097 39.5017 42 36.921 42H18.791C16.2103 42 14.92 40.7097 14.92 38.129V15.393C14.92 12.8123 16.2103 11.522 18.791 11.522H36.921C39.5017 11.522 40.792 12.8123 40.792 15.393V22.057ZM64.2171 37.59V22.645C64.2171 22.0243 64.1191 21.616 63.9231 21.42C63.7597 21.224 63.3514 21.126 62.6981 21.126H54.1231C53.5024 21.126 53.0941 21.224 52.8981 21.42C52.7021 21.616 52.6041 22.0243 52.6041 22.645V37.59C52.6041 38.2433 52.7021 38.668 52.8981 38.864C53.0941 39.0273 53.5024 39.109 54.1231 39.109H62.6981C63.3514 39.109 63.7597 39.0273 63.9231 38.864C64.1191 38.668 64.2171 38.2433 64.2171 37.59ZM50.2031 18.235H66.6181C69.1987 18.235 70.4891 19.5253 70.4891 22.106V38.129C70.4891 40.7097 69.1987 42 66.6181 42H50.2031C47.6224 42 46.3321 40.7097 46.3321 38.129V22.106C46.3321 19.5253 47.6224 18.235 50.2031 18.235ZM84.6363 39.109H92.7703C93.3909 39.109 93.8319 38.9947 94.0933 38.766C94.3546 38.5047 94.4853 38.08 94.4853 37.492V22.743C94.4853 22.155 94.3546 21.7467 94.0933 21.518C93.8319 21.2567 93.3909 21.126 92.7703 21.126H84.6363C83.9829 21.126 83.5583 21.224 83.3623 21.42C83.1989 21.616 83.1173 22.0243 83.1173 22.645V37.59C83.1173 38.2433 83.1989 38.668 83.3623 38.864C83.5583 39.0273 83.9829 39.109 84.6363 39.109ZM94.4853 9.219H100.806V42H94.4853V40.481C94.0933 41.4937 93.1786 42 91.7413 42H80.6673C78.0866 42 76.7963 40.7097 76.7963 38.129V22.106C76.7963 19.5253 78.0866 18.235 80.6673 18.235H91.7413C93.1786 18.235 94.0933 18.7413 94.4853 19.754V9.219ZM113.821 28.378H125.826V22.645C125.826 22.0243 125.728 21.616 125.532 21.42C125.336 21.224 124.927 21.126 124.307 21.126H115.34C114.686 21.126 114.262 21.224 114.066 21.42C113.902 21.616 113.821 22.0243 113.821 22.645V28.378ZM111.371 18.235H128.129C130.709 18.235 132 19.5253 132 22.106V31.269H113.821V37.59C113.821 38.2433 113.902 38.668 114.066 38.864C114.262 39.0273 114.686 39.109 115.34 39.109H124.209C124.829 39.109 125.238 39.0273 125.434 38.864C125.63 38.668 125.728 38.2433 125.728 37.59V34.895H131.902V38.129C131.902 40.7097 130.611 42 128.031 42H111.371C108.79 42 107.5 40.7097 107.5 38.129V22.106C107.5 19.5253 108.79 18.235 111.371 18.235ZM149.089 18.186H153.352V21.371H147.962C145.708 21.371 144.581 22.596 144.581 25.046V42H138.26V18.235H144.581V21.175C145.202 19.1823 146.705 18.186 149.089 18.186ZM172.731 37.639V33.131C172.731 32.5103 172.633 32.102 172.437 31.906C172.241 31.71 171.833 31.612 171.212 31.612H160.187C157.606 31.612 156.316 30.3217 156.316 27.741V22.106C156.316 19.5253 157.606 18.235 160.187 18.235H174.936C177.517 18.235 178.807 19.5253 178.807 22.106V25.095H172.633V22.596C172.633 21.9427 172.535 21.5343 172.339 21.371C172.143 21.175 171.735 21.077 171.114 21.077H164.156C163.535 21.077 163.127 21.175 162.931 21.371C162.735 21.5343 162.637 21.9427 162.637 22.596V27.202C162.637 27.8553 162.735 28.28 162.931 28.476C163.127 28.6393 163.535 28.721 164.156 28.721H175.132C177.713 28.721 179.003 30.0113 179.003 32.592V38.129C179.003 40.7097 177.713 42 175.132 42H160.334C157.753 42 156.463 40.7097 156.463 38.129V35.14H162.637V37.639C162.637 38.2597 162.735 38.668 162.931 38.864C163.127 39.06 163.535 39.158 164.156 39.158H171.212C171.833 39.158 172.241 39.06 172.437 38.864C172.633 38.668 172.731 38.2597 172.731 37.639Z" fill="#212121"/>
<path d="M192.223 33.082H204.914L198.544 15.638L192.223 33.082ZM208.197 42L205.992 35.973H191.194L188.989 42H182.57L194.281 11.522H202.905L214.665 42H208.197ZM237.207 37.59V22.645C237.207 22.0243 237.109 21.616 236.913 21.42C236.749 21.224 236.341 21.126 235.688 21.126H227.162C226.018 21.126 225.447 21.6813 225.447 22.792V37.492C225.447 38.57 226.018 39.109 227.162 39.109H235.688C236.341 39.109 236.749 39.0273 236.913 38.864C237.109 38.668 237.207 38.2433 237.207 37.59ZM228.191 18.235H239.657C242.237 18.235 243.528 19.5253 243.528 22.106V38.129C243.528 40.7097 242.237 42 239.657 42H228.191C226.753 42 225.839 41.4937 225.447 40.481V48.909H219.126V18.235H225.398V19.95C225.79 18.8067 226.721 18.235 228.191 18.235ZM268.341 37.59V22.645C268.341 22.0243 268.243 21.616 268.047 21.42C267.883 21.224 267.475 21.126 266.822 21.126H258.296C257.152 21.126 256.581 21.6813 256.581 22.792V37.492C256.581 38.57 257.152 39.109 258.296 39.109H266.822C267.475 39.109 267.883 39.0273 268.047 38.864C268.243 38.668 268.341 38.2433 268.341 37.59ZM259.325 18.235H270.791C273.371 18.235 274.662 19.5253 274.662 22.106V38.129C274.662 40.7097 273.371 42 270.791 42H259.325C257.887 42 256.973 41.4937 256.581 40.481V48.909H250.26V18.235H256.532V19.95C256.924 18.8067 257.855 18.235 259.325 18.235Z" fill="#2196F3"/>
<path d="M2.3064 34H5.38161C6.65013 34 7.68801 35.0354 7.68801 36.3008V39.3686C7.68801 40.6341 6.65013 41.6694 5.38161 41.6694H2.3064C1.03788 41.6694 0 40.6341 0 39.3686V36.3008C0 35.0354 1.03788 34 2.3064 34Z" fill="#2196F3"/>
</svg>
